<?xml version="1.0" standalone="no"?>
<!DOCTYPE svg PUBLIC "-//W3C//DTD SVG 20010904//EN"
 "http://www.w3.org/TR/2001/REC-SVG-20010904/DTD/svg10.dtd">
<svg version="1.0" xmlns="http://www.w3.org/2000/svg"
 width="700.000000pt" height="700.000000pt" viewBox="0 0 700.000000 700.000000"
 preserveAspectRatio="xMidYMid meet">
<metadata>
Created by potrace 1.11, written by Peter Selinger 2001-2013
</metadata>
<g transform="translate(0.000000,700.000000) scale(0.100000,-0.100000)"
fill="#000000" stroke="none">
<path d="M2405 6573 c-49 -7 -194 -53 -230 -73 -99 -55 -196 -137 -255 -215
-53 -69 -114 -205 -126 -284 -3 -18 -8 -43 -10 -55 -3 -11 -5 -550 -5 -1196
-1 -1280 -2 -1246 56 -1388 98 -241 338 -421 595 -446 25 -2 614 -5 1310 -5
l1266 -1 424 -424 c280 -279 440 -431 470 -447 68 -36 175 -34 253 4 64 32 99
72 127 145 17 45 19 82 20 392 0 189 3 347 6 351 3 5 12 9 20 9 9 0 49 14 91
30 247 99 421 323 458 590 6 44 7 2347 1 2376 -2 12 -7 37 -10 57 -3 19 -13
57 -22 84 -80 242 -272 420 -519 482 -79 20 -102 20 -1985 19 -1048 0 -1918
-3 -1935 -5z m2012 -1015 l161 -161 -199 -200 c-109 -109 -199 -201 -199 -203
0 -2 268 -4 595 -4 l595 0 0 -230 0 -230 -32 -2 c-18 0 -284 -2 -591 -3 -307
-2 -560 -5 -563 -7 -2 -3 84 -91 191 -196 107 -106 195 -195 195 -199 0 -9
-312 -323 -321 -323 -10 0 -954 949 -954 960 0 10 944 960 955 960 3 0 78 -73
167 -162z"/>
<path d="M685 4971 c-38 -10 -79 -21 -90 -25 -177 -70 -319 -198 -398 -360
-78 -159 -72 -44 -72 -1431 l0 -1240 27 -80 c40 -115 92 -199 183 -291 92 -93
176 -146 291 -182 l81 -26 0 -352 0 -351 26 -54 c30 -64 40 -76 89 -113 44
-33 119 -54 176 -50 96 7 111 20 566 479 l431 435 1320 3 1320 2 67 23 c37 12
84 30 105 40 226 104 392 333 417 576 l5 42 -210 210 c-201 201 -211 209 -249
209 -22 1 -40 -2 -41 -5 -1 -3 -2 -99 -3 -215 -2 -179 -5 -215 -20 -245 -25
-49 -64 -88 -111 -113 l-40 -21 -1383 -1 -1382 -1 -282 -282 c-154 -156 -283
-281 -285 -278 -2 2 -5 129 -6 282 l-2 278 -205 1 c-193 1 -208 2 -253 24 -26
13 -59 37 -72 55 -58 76 -55 5 -55 1238 0 708 4 1146 10 1167 21 74 92 142
161 155 13 3 129 5 257 5 l232 1 0 255 0 256 -267 -2 c-213 -1 -282 -5 -338
-18z"/>
</g>
</svg>
